<svg width="124" height="73" fill="none" xmlns="http://www.w3.org/2000/svg"><path fill-rule="evenodd" clip-rule="evenodd" d="M65.672 68.55l.111-.437a294.471 294.471 0 014.657-16.227l.003-.01a478.366 478.366 0 016.06-17.333l.002-.008a752.117 752.117 0 016.9-17.461l.005-.013c2.44-5.724 4.833-11.213 7.18-16.469L90.853 0h32.705l-.286 1.227a3185.84 3185.84 0 00-4.075 17.706l-.002.007-.004.022-3.923 18.49-.004.023-.002.007a972.651 972.651 0 00-3.37 17.974 640.152 640.152 0 00-2.668 16.146l-.128.851H68.333l-2.661-3.903zm48.612-31.269l3.937-18.562A3189.127 3189.127 0 01122.066 2l.233-1H91.502a1058.674 1058.674 0 00-7.172 16.453 750.66 750.66 0 00-6.89 17.438 477.096 477.096 0 00-6.047 17.297 293.498 293.498 0 00-4.64 16.171l2.109 3.094h39.375c.75-4.969 1.64-10.36 2.672-16.172a966.567 966.567 0 013.375-18zM0 68.55l.111-.437a294.542 294.542 0 014.657-16.227l.003-.01a478.403 478.403 0 016.06-17.333l.002-.008a751.67 751.67 0 016.9-17.461l.005-.013A1058.64 1058.64 0 0124.918.592L25.181 0h32.867l-.311 1.243a847.745 847.745 0 00-4.212 17.69l-.002.007-.004.022-3.922 18.49-.005.023-.002.007a968.518 968.518 0 00-3.37 17.974 637.816 637.816 0 00-2.667 16.146l-.129.851H2.661L0 68.55zM48.612 37.28l3.937-18.562A855.792 855.792 0 0156.768 1H25.83a1058.674 1058.674 0 00-7.171 16.453 751.108 751.108 0 00-6.891 17.438A477.172 477.172 0 005.72 52.188a293.543 293.543 0 00-4.64 16.171l2.109 3.094h39.375c.75-4.969 1.64-10.36 2.672-16.172a971.521 971.521 0 013.375-18z" fill="#FFD600"/></svg>