<svg width="175" height="53" fill="none" xmlns="http://www.w3.org/2000/svg"><path d="M61.43 3.414h-2.122v14.31l-4.243-14.31H52.75l4.3 14.464h-4.493V20h8.871V3.414zm8.684 0v7.232h-4.63V3.414h-2.12V20h2.12v-7.232h4.63V20h2.121V3.414h-2.121zm10.791 0l-4.628 11.09V3.413h-2.122V20h2.122l4.629-10.993V20h2.121V3.414h-2.121zm10.793 7.695a4.483 4.483 0 001.35-3.22 4.482 4.482 0 00-4.436-4.475h-3.665V20H88.96c2.68 0 4.86-2.18 4.86-4.88a4.871 4.871 0 00-2.121-4.011zm-4.63-5.574h1.64a2.368 2.368 0 010 4.725h-1.64V5.535zm2.026 12.343h-2.025v-5.496h2.025a2.75 2.75 0 012.604 2.739 2.754 2.754 0 01-2.604 2.757zm8.579-5.592h5.593v-2.122h-5.593V5.535h6.75V3.414h-8.872V20h8.872v-2.122h-6.75v-5.592zm11.761-8.872h-3.279V20h2.121v-5.304h1.158c3.085-.019 5.593-2.546 5.593-5.65 0-3.086-2.508-5.613-5.593-5.632zm0 9.16h-1.158V5.536h1.158c1.909.02 3.471 1.601 3.471 3.51 0 1.929-1.562 3.51-3.471 3.53zm19.67 3.569c-1.157 1.215-2.758 1.832-4.436 1.832a6.278 6.278 0 01-4.436-1.832c-1.195-1.177-1.832-2.758-1.832-4.436a6.28 6.28 0 011.832-4.436c1.177-1.196 2.758-1.832 4.436-1.832s3.24.636 4.436 1.832c.637.636 1.099 1.389 1.427 2.199l1.987-.733a8.397 8.397 0 00-7.85-5.42c-4.628 0-8.389 3.761-8.389 8.39 0 4.629 3.761 8.39 8.389 8.39a8.385 8.385 0 007.657-4.938l-2.006-.733a6.925 6.925 0 01-1.215 1.717zm11.714-12.73l-4.629 11.09V3.413h-2.122V20h2.122l4.629-10.993V20h2.121V3.414h-2.121zm12.527 0h-8.871v2.122h3.375V20h2.121V5.535h3.375V3.414zm3.656 8.873h5.593v-2.122h-5.593V5.535h6.75V3.414h-8.872V20h8.872v-2.122h-6.75v-5.592zm16.968-8.872h-8.872v2.121h3.375V20h2.122V5.535h3.375V3.414zM69.45 41.376c-1.634 1.716-3.895 2.588-6.266 2.588-2.37 0-4.576-.926-6.265-2.588-1.69-1.662-2.588-3.896-2.588-6.266s.926-4.577 2.588-6.266c1.662-1.69 3.895-2.588 6.266-2.588 2.37 0 4.576.899 6.265 2.588.9.899 1.553 1.961 2.016 3.106l2.806-1.036c-1.689-4.467-6.02-7.655-11.088-7.655-6.538 0-11.85 5.313-11.85 11.85 0 6.54 5.312 11.851 11.85 11.851 4.823 0 8.963-2.86 10.816-6.974l-2.833-1.035a9.828 9.828 0 01-1.717 2.425zm10.008-5.449h7.9V32.93h-7.9v-6.538h9.535v-2.997H76.46v23.43h12.532v-2.998h-9.535v-7.9zM96.07 23.395h-4.632v23.43h2.997v-7.492h1.635c4.358-.028 7.9-3.597 7.9-7.983 0-4.359-3.542-7.927-7.9-7.955zm0 12.94h-1.635v-9.943h1.635c2.697.027 4.903 2.261 4.903 4.958 0 2.725-2.206 4.959-4.903 4.986zm19.748-2.07a6.33 6.33 0 001.907-4.55c0-3.46-2.806-6.292-6.265-6.32h-5.177v23.43h5.667c3.787 0 6.865-3.08 6.865-6.893a6.88 6.88 0 00-2.997-5.667zm-6.538-7.873h2.316a3.34 3.34 0 013.133 3.324 3.345 3.345 0 01-3.133 3.35h-2.316v-6.674zm2.861 17.436h-2.861v-7.765h2.861a3.884 3.884 0 013.677 3.869 3.89 3.89 0 01-3.677 3.895zm18.656-20.433l-6.539 15.665V23.395h-2.996v23.43h2.996l6.539-15.53v15.53h2.996v-23.43h-2.996zm23.281 17.98c-1.635 1.717-3.896 2.589-6.266 2.589s-4.577-.926-6.266-2.588-2.588-3.896-2.588-6.266.926-4.577 2.588-6.266c1.662-1.69 3.896-2.588 6.266-2.588s4.576.899 6.266 2.588c.899.899 1.552 1.961 2.016 3.106l2.806-1.036c-1.69-4.467-6.021-7.655-11.088-7.655-6.539 0-11.851 5.313-11.851 11.85 0 6.54 5.312 11.851 11.851 11.851 4.822 0 8.963-2.86 10.815-6.974l-2.833-1.035a9.838 9.838 0 01-1.716 2.425zm17.47 5.45h3.133l-5.721-23.43h-4.631l-5.585 23.43h3.133l1.962-8.446h5.694l2.015 8.445zm-7.001-11.443l2.071-8.99h.054l2.152 8.99h-4.277z" fill="#fff"/><circle cx="33.494" cy="13.171" r="10.111" transform="rotate(180 33.494 13.171)" fill="#FFD600"/><circle cx="10.111" cy="37.186" r="10.111" transform="rotate(180 10.111 37.186)" fill="#fff"/><circle cx="33.494" cy="37.186" r="10.111" transform="rotate(180 33.494 37.186)" fill="#fff"/><circle cx="10.111" cy="13.171" r="10.111" transform="rotate(180 10.111 13.171)" fill="#fff"/></svg>