<svg width="1421" height="769" fill="none" xmlns="http://www.w3.org/2000/svg"><path opacity=".1" fill-rule="evenodd" clip-rule="evenodd" d="M286.013 2.177v380.465h-53.937V164.985L189.7 382.642h-74.643L72.682 164.985v217.657H18.744V2.177h77.369l56.151 299.474L204.256 2.177h81.757zm-133.634 316.49L93.604 5.2H21.767V379.62h47.891V133.634l47.891 245.985h69.659l47.891-245.985v245.985h47.891V5.2H206.8l-54.421 313.467zM476.977 2.177h52.928v380.465h-53.937V146.429L376.51 382.642h-52.922V2.177h53.938v238.268L476.977 2.177zM374.502 255.538V5.2h-47.89V379.62h47.89l104.489-248.161v248.161h47.891V5.2h-47.891L374.502 255.538zm474.36 34.915l.006-.006c11.106-11.533 20.072-24.343 26.902-38.002l1.207-2.414 50.868 18.586-1.336 2.965c-30.078 66.791-97.311 113.237-175.598 113.237-106.159 0-192.41-86.251-192.41-192.41C558.501 86.251 644.752 0 750.911 0c82.276 0 152.6 51.754 180.023 124.293l1.078 2.851-50.452 18.613-1.099-2.716c-7.274-17.971-17.515-34.591-31.553-48.629-26.419-26.419-60.912-40.475-97.997-40.475-37.1 0-72.014 14.065-97.98 40.458-26.016 26.441-40.492 60.95-40.492 98.014 0 37.1 14.064 72.014 40.457 97.98 26.441 26.016 60.95 40.492 98.015 40.492 37.136 0 72.451-13.653 97.945-40.422l.006-.006zm34.401-148.546c-7.401-18.286-17.85-35.265-32.217-49.633-26.993-26.993-62.258-41.36-100.135-41.36-37.878 0-73.578 14.367-100.136 41.36-26.557 26.993-41.36 62.258-41.36 100.135 0 37.878 14.367 73.578 41.36 100.136 26.993 26.557 62.258 41.36 100.136 41.36 37.877 0 74.012-13.932 100.135-41.36 11.319-11.755 20.462-24.816 27.428-38.748l45.279 16.544c-.416.922-.839 1.841-1.268 2.755-30.197 64.26-95.595 108.699-171.574 108.699-104.489 0-189.387-84.897-189.387-189.386 0-104.488 84.898-189.386 189.387-189.386 79.908 0 148.371 49.601 176.103 119.52.371.935.735 1.874 1.091 2.816l.001.003-44.843 16.545zM1113.45 2.177h52.93v380.465h-53.94V146.429l-99.46 236.213h-52.918V2.177H1014v238.268l99.45-238.268zm-102.47 253.361V5.2h-47.895V379.62h47.895l104.49-248.161v248.161h47.89V5.2h-47.89l-104.49 250.338zM1401.29 2.177v380.465h-53.94V262.915h-20.16l-46.58 119.727h-56.56l50.6-129.791c-46.67-19.848-79.68-66.31-79.68-120.087 0-71.73 57.92-130.587 129.29-130.587h77.03zm-122.75 249.007l-50.07 128.435h50.07l46.59-119.727h25.25v119.727h47.89V5.2h-74.01C1254.6 5.2 1198 62.67 1198 132.764c0 53.55 33.52 99.698 80.54 118.42zm45.72-195.07c-41.38 0-75.35 34.728-75.35 76.65 0 41.475 33.96 76.214 75.35 76.214h23.09V56.114h-23.09zm0-3.023c-43.11 0-78.37 36.136-78.37 79.673 0 43.101 35.26 79.237 78.37 79.237h26.12V53.091h-26.12z" fill="url(#paint0_linear)"/><path opacity=".1" d="M17.88 683.975l-1.786.759.004.009 1.783-.768zm0-94.454l-1.782-.767-.004.009 1.787.758zm64.836-64.698l.758 1.787.009-.004-.767-1.783zm116.703 12.148l-1.119 1.586.004.003 1.115-1.589zm44.36 56.781l.673 1.821 1.836-.678-.693-1.83-1.816.687zm-28.8 10.647l-1.799.73.708 1.743 1.764-.652-.673-1.821zm-50.23-51.595l-.741 1.794.012.005.729-1.799zm-69.749 0l.724 1.801.012-.005-.736-1.796zm-29.346 19.655l1.38 1.366.007-.008-1.387-1.358zm-19.655 29.62l1.794.741.002-.005-1.796-.736zm-.137 69.612l-1.801.723.005.013 1.796-.736zm19.792 29.346l1.358-1.387-1.358 1.387zm29.62 19.792l-.755 1.789.013.005.741-1.794zm69.748 0l-.731-1.798-.005.002.736 1.796zm29.21-19.792l-1.398-1.347-.004.004 1.402 1.343zm17.608-24.842l.667-1.823-1.628-.596-.776 1.551 1.737.868zm29.073 10.647l1.77.798.858-1.903-1.96-.718-.668 1.823zm-44.497 51.868l1.066 1.622.002-.001-1.068-1.621zm-113.7 10.1l-.768 1.784.01.003.758-1.787zm-38.901-25.934l-1.379 1.367.006.006.006.006 1.367-1.379zm-24.147-39.659c-6.267-14.772-9.4-30.256-9.4-46.469H6.384c0 16.728 3.236 32.729 9.709 47.986l3.574-1.517zm-9.4-46.469c0-16.212 3.133-31.697 9.4-46.469l-3.574-1.516c-6.473 15.257-9.71 31.257-9.71 47.985h3.883zm9.396-46.46c6.37-14.803 14.88-27.516 25.523-38.159l-2.745-2.745c-11.014 11.014-19.793 24.145-26.344 39.37l3.566 1.534zm25.523-38.159c10.734-10.733 23.489-19.241 38.287-25.519l-1.516-3.574c-15.231 6.461-28.41 15.242-39.516 26.348l2.745 2.745zm38.296-25.523c14.77-6.356 30.251-9.533 46.46-9.533v-3.883c-16.732 0-32.736 3.284-47.995 9.849l1.535 3.567zm46.46-9.533c25.267 0 48.034 7.159 68.357 21.484l2.237-3.173c-20.989-14.794-44.539-22.194-70.594-22.194v3.883zm68.361 21.487c20.434 14.34 34.974 32.956 43.66 55.88l3.631-1.375c-8.967-23.666-24.002-42.905-45.061-57.683l-2.23 3.178zm44.802 53.372l-28.8 10.646 1.346 3.642 28.8-10.647-1.346-3.641zm-26.328 11.737c-5.184-12.775-12.237-23.646-21.173-32.582l-2.746 2.745c8.535 8.535 15.314 18.957 20.321 31.297l3.598-1.46zm-21.173-32.582c-8.824-8.824-18.869-15.523-30.127-20.082l-1.458 3.598c10.763 4.359 20.373 10.763 28.839 19.229l2.746-2.745zM165.49 551.01c-11.251-4.649-23.105-6.972-35.547-6.972v3.883c11.945 0 23.295 2.227 34.065 6.677l1.482-3.588zm-35.547-6.972c-12.442 0-24.34 2.323-35.679 6.97l1.472 3.592c10.864-4.452 22.262-6.679 34.207-6.679v-3.883zm-35.666 6.965c-11.354 4.56-21.362 11.264-30.01 20.098l2.774 2.716c8.277-8.454 17.834-14.854 28.683-19.212l-1.447-3.602zm-30.003 20.091c-8.73 8.823-15.424 18.909-20.072 30.248l3.593 1.473c4.452-10.864 10.861-20.524 19.239-28.99l-2.76-2.731zm-20.07 30.243c-4.648 11.25-6.971 23.058-6.971 35.411h3.882c0-11.852 2.227-23.156 6.678-33.928l-3.588-1.483zm-6.971 35.411c0 12.437 2.275 24.33 6.828 35.666l3.603-1.447c-4.365-10.867-6.549-22.268-6.549-34.219h-3.882zm6.833 35.679c4.65 11.348 11.398 21.351 20.23 29.997l2.716-2.774c-8.458-8.279-14.905-17.84-19.354-28.695l-3.592 1.472zm20.23 29.997c8.906 8.721 18.983 15.456 30.223 20.194l1.508-3.578c-10.78-4.544-20.45-11.003-29.015-19.39l-2.716 2.774zm30.236 20.199c11.249 4.649 23.058 6.972 35.411 6.972v-3.883c-11.852 0-23.157-2.226-33.928-6.677l-1.483 3.588zm35.411 6.972c12.531 0 24.474-2.322 35.815-6.97l-1.472-3.592c-10.862 4.451-22.305 6.679-34.343 6.679v3.883zm35.81-6.968c11.443-4.651 21.409-11.403 29.881-20.247l-2.804-2.686c-8.09 8.446-17.597 14.889-28.539 19.337l1.462 3.596zm29.877-20.243c7.322-7.601 13.307-16.042 17.946-25.321l-3.473-1.736c-4.46 8.921-10.214 17.041-17.269 24.363l2.796 2.694zm15.542-24.366l29.073 10.647 1.336-3.646-29.074-10.647-1.335 3.646zm27.971 8.026c-9.491 21.041-24.076 38.048-43.796 51.045l2.137 3.242c20.319-13.392 35.398-30.964 45.199-52.691l-3.54-1.596zm-43.794 51.044c-19.604 12.89-41.389 19.336-65.406 19.336v3.882c24.757 0 47.287-6.658 67.539-19.974l-2.133-3.244zm-65.406 19.336c-16.213 0-31.697-3.134-46.47-9.401l-1.515 3.574c15.256 6.473 31.257 9.709 47.985 9.709v-3.882zm-46.46-9.397c-14.805-6.371-27.565-14.882-38.301-25.529l-2.734 2.757c11.103 11.01 24.277 19.788 39.5 26.338l1.535-3.566zm-38.29-25.518c-10.646-10.736-19.158-23.496-25.529-38.301l-3.566 1.535c6.55 15.223 15.328 28.397 26.338 39.5l2.757-2.734zm215.375-174.165h-1.941v1.942h1.941v-1.942zm0-30.711v-1.941h-1.941v1.941h1.941zm128.715 0h1.941v-1.941h-1.941v1.941zm0 30.711v1.942h1.941v-1.942h-1.941zm-49.002 0v-1.941h-1.941v1.941h1.941zm0 209.656v1.941h1.941V757h-1.941zm-30.711 0h-1.941v1.941h1.941V757zm0-209.656h1.941v-1.941h-1.941v1.941zm-47.061 0v-30.711h-3.882v30.711h3.882zm-1.941-28.77h128.715v-3.882H260.568v3.882zm126.773-1.941v30.711h3.883v-30.711h-3.883zm1.942 28.77h-49.002v3.883h49.002v-3.883zm-50.943 1.941V757h3.882V547.344h-3.882zm1.941 207.715H309.57v3.882h30.711v-3.882zM311.511 757V547.344h-3.882V757h3.882zm-1.941-211.597h-49.002v3.883h49.002v-3.883zM411.395 757h-1.941v1.941h1.941V757zm0-240.367v-1.941h-1.941v1.941h1.941zm47.636 0l.016-1.941h-.016v1.941zm31.531 6.688l-.777 1.779.007.003.007.003.763-1.785zm25.797 17.472l-1.39 1.355.009.009 1.381-1.364zm12.694 98.412l-1.679-.973-.006.009 1.685.964zm-29.483 29.892l.985 1.674.003-.002-.988-1.672zm-40.539 11.057v1.941h.012l-.012-1.941zm-16.788 0v-1.942h-1.942v1.942h1.942zm0 76.846v1.941h1.941V757h-1.941zm0-107.558h-1.942v1.941h1.942v-1.941zm16.788 0v1.941h.026l-.026-1.941zm35.489-15.151l1.379 1.367.006-.007-1.385-1.36zm-35.489-86.947l.013-1.941h-.013v1.941zm-16.788 0v-1.941h-1.942v1.941h1.942zM413.336 757V516.633h-3.882V757h3.882zm-1.941-238.426h47.636v-3.882h-47.636v3.882zm47.62 0c10.751.089 21.003 2.264 30.77 6.526l1.553-3.558c-10.251-4.473-21.02-6.757-32.291-6.85l-.032 3.882zm30.784 6.532c9.788 4.182 18.17 9.865 25.17 17.042l2.78-2.711c-7.378-7.564-16.193-13.529-26.425-17.901l-1.525 3.57zm25.179 17.051c7.007 7.095 12.607 15.532 16.794 25.332l3.571-1.525c-4.367-10.219-10.232-19.072-17.603-26.535l-2.762 2.728zm16.794 25.332c4.173 9.766 6.259 20.016 6.259 30.768h3.883c0-11.27-2.19-22.04-6.571-32.293l-3.571 1.525zm6.259 30.768c0 14.405-3.552 27.718-10.657 39.975l3.359 1.947c7.454-12.858 11.181-26.844 11.181-41.922h-3.883zm-10.663 39.984c-7.021 12.265-16.608 21.986-28.786 29.185l1.976 3.343c12.756-7.542 22.824-17.75 30.18-30.599l-3.37-1.929zm-28.782 29.183c-12.074 7.103-25.251 10.699-39.567 10.788l.024 3.883c14.986-.093 28.835-3.868 41.512-11.324l-1.969-3.347zm-39.555 10.788h-16.788v3.883h16.788v-3.883zm-18.73 1.942V757h3.883v-76.846h-3.883zm1.942 74.905h-30.848v3.882h30.848v-3.882zm0-103.676h16.788v-3.882h-16.788v3.882zm16.814 0c14.346-.188 26.66-5.449 36.842-15.725l-2.758-2.733c-9.473 9.561-20.818 14.401-34.135 14.576l.051 3.882zm36.848-15.732c10.184-10.372 15.298-22.872 15.298-37.394h-3.883c0 13.504-4.714 25.027-14.185 34.674l2.77 2.72zm15.298-37.394c0-14.348-5.119-26.755-15.298-37.122l-2.77 2.72c9.477 9.653 14.185 21.087 14.185 34.402h3.883zm-15.298-37.122c-10.184-10.372-22.505-15.638-36.861-15.732l-.025 3.882c13.306.088 24.644 4.923 34.116 14.57l2.77-2.72zm-36.874-15.732h-16.788v3.883h16.788v-3.883zm-18.73 1.941v102.098h3.883V547.344h-3.883zM533.967 757l-1.888-.45-.571 2.391h2.459V757zm57.328-240.367v-1.941h-1.533l-.356 1.491 1.889.45zm47.5 0l1.886-.461-.362-1.48h-1.524v1.941zM697.488 757v1.941h2.472l-.587-2.401-1.885.46zm-32.077 0l-1.888.452.357 1.489h1.531V757zm-20.747-86.674l1.888-.452-.356-1.489h-1.532v1.941zm-58.42 0v-1.941h-1.543l-.348 1.503 1.891.438zM566.18 757v1.941h1.543l.348-1.503-1.891-.438zm27.299-117.385l-1.892-.437-.549 2.378h2.441v-1.941zm43.951 0v1.941h2.461l-.573-2.394-1.888.453zm-22.112-92.271l1.888-.452-.357-1.489h-1.531v1.941zm-.546 0v-1.941h-1.545l-.347 1.505 1.892.436zM535.855 757.45l57.328-240.367-3.777-.9-57.327 240.367 3.776.9zm55.44-238.876h47.5v-3.882h-47.5v3.882zm45.614-1.481l58.693 240.367 3.771-.92-58.692-240.368-3.772.921zm60.579 237.966h-32.077v3.882h32.077v-3.882zm-30.189 1.489l-20.747-86.674-3.776.904 20.747 86.674 3.776-.904zm-22.635-88.163h-58.42v3.882h58.42v-3.882zm-60.311 1.503l-20.065 86.674 3.783.876 20.065-86.674-3.783-.876zm-18.173 85.171h-32.213v3.882h32.213v-3.882zm27.299-113.503h43.951v-3.883h-43.951v3.883zm45.839-2.394l-22.112-92.27-3.776.905 22.112 92.27 3.776-.905zm-24-93.759h-.546v3.883h.546v-3.883zm-2.438 1.505l-21.293 92.27 3.783.873 21.293-92.27-3.783-.873zm77.1.436h-1.941v1.942h1.941v-1.942zm0-30.711v-1.941h-1.941v1.941h1.941zm128.715 0h1.941v-1.941h-1.941v1.941zm0 30.711v1.942h1.941v-1.942h-1.941zm-49.002 0v-1.941h-1.941v1.941h1.941zm0 209.656v1.941h1.941V757h-1.941zm-30.711 0h-1.941v1.941h1.941V757zm0-209.656h1.941v-1.941h-1.941v1.941zm-47.06 0v-30.711h-3.883v30.711h3.883zm-1.942-28.77h128.715v-3.882H689.98v3.882zm126.774-1.941v30.711h3.882v-30.711h-3.882zm1.941 28.77h-49.002v3.883h49.002v-3.883zm-50.943 1.941V757h3.882V547.344h-3.882zm1.941 207.715h-30.711v3.882h30.711v-3.882zM740.923 757V547.344h-3.882V757h3.882zm-1.941-211.597H689.98v3.883h49.002v-3.883zM840.807 757h-1.941v1.941h1.941V757zm0-240.367v-1.941h-1.941v1.941h1.941zm128.578 0h1.941v-1.941h-1.941v1.941zm0 30.711v1.942h1.941v-1.942h-1.941zm-97.73 0v-1.941h-1.942v1.941h1.942zm0 67.156h-1.942v1.941h1.942V614.5zm81.077 0h1.942v-1.942h-1.942v1.942zm0 30.711v1.941h1.942v-1.941h-1.942zm-81.077 0v-1.941h-1.942v1.941h1.942zm0 81.078h-1.942v1.941h1.942v-1.941zm97.73 0h1.941v-1.942h-1.941v1.942zm0 30.711v1.941h1.941V757h-1.941zm-126.637 0V516.633h-3.882V757h3.882zm-1.941-238.426h128.578v-3.882H840.807v3.882zm126.637-1.941v30.711h3.882v-30.711h-3.882zm1.941 28.77h-97.73v3.883h97.73v-3.883zm-99.672 1.941V614.5h3.883v-67.156h-3.883zm1.942 69.097h81.077v-3.883h-81.077v3.883zm79.136-1.941v30.711h3.883V614.5h-3.883zm1.941 28.77h-81.077v3.882h81.077v-3.882zm-83.019 1.941v81.078h3.883v-81.078h-3.883zm1.942 83.019h97.73v-3.883h-97.73v3.883zm95.789-1.941V757h3.882v-30.711h-3.882zm1.941 28.77H840.807v3.882h128.578v-3.882zM994.5 757h-1.941v1.941h1.941V757zm0-240.367v-1.941h-1.941v1.941h1.941zm107.69 0h1.95v-1.941h-1.95v1.941zm0 30.711v1.942h1.95v-1.942h-1.95zm-76.84 0v-1.941h-1.94v1.941h1.94zm0 209.656v1.941h1.94V757h-1.94zm-28.909 0V516.633h-3.882V757h3.882zM994.5 518.574h107.69v-3.882H994.5v3.882zm105.75-1.941v30.711h3.89v-30.711h-3.89zm1.94 28.77h-76.84v3.883h76.84v-3.883zm-78.78 1.941V757h3.88V547.344h-3.88zm1.94 207.715H994.5v3.882h30.85v-3.882zM1125.81 757h-1.94v1.941h1.94V757zm0-240.367v-1.941h-1.94v1.941h1.94zm30.85 0h1.94v-1.941h-1.94v1.941zm0 160.654h-1.95l3.74.748-1.79-.748zm67.01-160.654v-1.941h-1.29l-.5 1.194 1.79.747zm30.72 0h1.94v-1.941h-1.94v1.941zm0 240.367v1.941h1.94V757h-1.94zm-30.72 0h-1.94v1.941h1.94V757zm0-159.289h1.95l-3.73-.753 1.78.753zM1156.66 757v1.941h1.28l.5-1.188-1.78-.753zm-28.91 0V516.633h-3.88V757h3.88zm-1.94-238.426h30.85v-3.882h-30.85v3.882zm28.9-1.941v160.654h3.89V516.633h-3.89zm3.74 161.402l67.02-160.655-3.59-1.494-67.02 160.654 3.59 1.495zm65.22-159.461h30.72v-3.882h-30.72v3.882zm28.77-1.941V757h3.89V516.633h-3.89zm1.95 238.426h-30.72v3.882h30.72v-3.882zM1225.62 757V597.711h-3.89V757h3.89zm-3.73-160.042l-67.02 159.289 3.57 1.506 67.02-159.289-3.57-1.506zm-65.23 158.101h-30.85v3.882h30.85v-3.882zm130.76-197.478l-1.69-.968v.004l1.69.964zm29.62-29.892l.98 1.676v-.005l-.98-1.671zm88.31-11.056h1.94v-1.941h-1.94v1.941zm0 240.367v1.941h1.94V757h-1.94zm-30.85 0h-1.94v1.941h1.94V757zm0-76.846h1.94v-1.942h-1.94v1.942zm-16.24 0v-1.942h-1.33l-.48 1.238 1.81.704zM1328.37 757v1.941h1.32l.48-1.237-1.8-.704zm-32.08 0l-1.81-.704-1.03 2.645h2.84V757zm32.08-82.443l1.8.704.7-1.794-1.79-.713-.71 1.803zm-37.4-29.892l-1.6 1.103v.007l1.6-1.11zm83.53 4.777v1.941h1.94v-1.941h-1.94zm0-102.098h1.94v-1.941h-1.94v1.941zm-52.28 15.151l1.39 1.36v-.006l-1.39-1.354zm-43.64 36.035c0-14.41 3.5-27.726 10.52-39.984l-3.37-1.929c-7.36 12.857-11.04 26.84-11.04 41.913h3.89zm10.52-39.98c7.11-12.359 16.74-22.077 28.92-29.185l-1.96-3.352c-12.76 7.452-22.88 17.662-30.33 30.6l3.37 1.937zm28.92-29.19c12.17-7.192 25.38-10.786 39.69-10.786v-3.882c-14.99 0-28.89 3.776-41.66 11.326l1.97 3.342zm39.69-10.786h47.64v-3.882h-47.64v3.882zm45.7-1.941V757h3.88V516.633h-3.88zm1.94 238.426h-30.85v3.882h30.85v-3.882zM1376.44 757v-76.846h-3.88V757h3.88zm-1.94-78.788h-16.24v3.883h16.24v-3.883zm-18.05 1.238l-29.89 76.846 3.61 1.408 29.9-76.847-3.62-1.407zm-28.08 75.609h-32.08v3.882h32.08v-3.882zm-30.27 2.645l32.07-82.443-3.61-1.408-32.08 82.443 3.62 1.408zm30.98-84.95c-14.92-5.952-27.09-15.671-36.52-29.199l-3.19 2.22c9.86 14.135 22.63 24.344 38.28 30.585l1.43-3.606zm-36.52-29.192c-9.33-13.505-13.98-28.498-13.98-45.032h-3.89c0 17.316 4.9 33.08 14.68 47.238l3.19-2.206zm12.98-45.032c0 14.435 5.12 26.888 15.3 37.258l2.77-2.72c-9.48-9.65-14.19-21.129-14.19-34.538h-3.88zm15.3 37.258c10.18 10.375 22.51 15.595 36.87 15.595v-3.882c-13.3 0-24.63-4.789-34.1-14.433l-2.77 2.72zm36.87 15.595h16.79v-3.882h-16.79v3.882zm18.73-1.941V547.344h-3.88v102.098h3.88zm-1.94-104.039h-16.79v3.883h16.79v-3.883zm-16.79 0c-14.36 0-26.69 5.27-36.88 15.738l2.78 2.708c9.47-9.733 20.81-14.563 34.1-14.563v-3.883zm-36.87 15.732c-10.19 10.372-15.3 22.872-15.3 37.395h3.88c0-13.504 4.72-25.028 14.19-34.675l-2.77-2.72z" fill="url(#paint1_linear)"/><path d="M782 459.632c8.928 9.504 16.128 17.856 23.904 25.632-9.216 16.128-23.04 27.36-38.304 27.36-14.688 0-39.456-19.584-40.32-43.488 1.152-19.584 10.08-27.36 33.984-33.408 6.624 8.064 13.536 16.128 20.736 23.904zm82.08 67.104c24.192 0 56.736-29.952 56.736-52.992 0-22.176-13.248-34.848-26.208-44.928 4.608-4.896 6.912-11.808 13.536-17.28 2.304-2.016.864-2.016-1.152-1.728-3.456.864-15.552 1.728-25.92 1.728h-39.744c-2.592 0-8.928 10.656-14.112 16.704-1.152 1.44-.864 1.728 1.152 1.44 6.624-.864 15.264-.864 31.104-.864l32.256.288c5.472 7.776 9.216 24.48 9.216 42.912 0 20.736-3.744 43.488-14.4 43.488-14.688 0-43.776-21.6-84.96-67.392-28.512-31.68-55.584-62.496-55.584-84.96 0-21.888 13.536-34.848 37.728-34.848 28.224 0 41.472 25.92 43.776 58.176 0 4.608 3.168 4.608 3.168 0 0-11.808.576-24.192 1.44-33.696.288-5.472.864-10.944 1.44-15.84-5.76-4.032-34.56-10.944-49.536-10.944-30.528.864-53.856 21.312-53.856 55.872 0 11.808 12.672 31.104 29.952 52.704l-.864-.576C735.344 437.168 710 461.936 710 483.248c0 20.736 21.888 44.352 41.76 44.352 22.176 0 49.824-27.648 56.448-40.32 26.496 26.496 45.504 39.456 55.872 39.456z" fill="url(#paint2_linear)"/><defs><linearGradient id="paint0_linear" x1="713.423" y1="0" x2="713.423" y2="384.819" gradientUnits="userSpaceOnUse"><stop stop-color="#0372C8"/><stop offset="1" stop-color="red"/></linearGradient><linearGradient id="paint1_linear" x1="714" y1="427" x2="714" y2="768.661" gradientUnits="userSpaceOnUse"><stop stop-color="#0372C8"/><stop offset="1" stop-color="red"/></linearGradient><linearGradient id="paint2_linear" x1="761.253" y1="379.971" x2="825.794" y2="512.11" gradientUnits="userSpaceOnUse"><stop stop-color="#072B9D"/><stop offset=".74" stop-color="#7000FF"/></linearGradient></defs></svg>