<svg width="1421" height="769" viewBox="0 0 1421 769" fill="none" xmlns="http://www.w3.org/2000/svg">
<path opacity="0.1" fill-rule="evenodd" clip-rule="evenodd" d="M286.013 2.17687V382.642H232.076V164.985L189.7 382.642H115.057L72.6817 164.985V382.642H18.7441V2.17687H96.1128L152.264 301.651L204.256 2.17687H286.013ZM152.379 318.667L93.6036 5.20028H21.7675V379.619H69.6583V133.634L117.549 379.619H187.208L235.099 133.634V379.619H282.99V5.20028H206.8L152.379 318.667ZM476.977 2.17687H529.905V382.642H475.968V146.429L376.51 382.642H323.588V2.17687H377.526V240.445L476.977 2.17687ZM374.502 255.538V5.20028H326.612V379.619H374.502L478.991 131.458V379.619H526.882V5.20028H478.991L374.502 255.538ZM848.862 290.453L848.868 290.447C859.974 278.914 868.94 266.104 875.77 252.445L876.977 250.031L927.845 268.617L926.509 271.582C896.431 338.373 829.198 384.819 750.911 384.819C644.752 384.819 558.501 298.568 558.501 192.409C558.501 86.2508 644.752 0 750.911 0C833.187 0 903.511 51.7542 930.934 124.293L932.012 127.144L881.56 145.757L880.461 143.041C873.187 125.07 862.946 108.45 848.908 94.4122C822.489 67.9931 787.996 53.9375 750.911 53.9375C713.811 53.9375 678.897 68.0024 652.931 94.3947C626.915 120.836 612.439 155.345 612.439 192.409C612.439 229.509 626.503 264.423 652.896 290.389C679.337 316.405 713.846 330.881 750.911 330.881C788.047 330.881 823.362 317.228 848.856 290.459L848.862 290.453ZM883.263 141.907C875.862 123.621 865.413 106.642 851.046 92.2743C824.053 65.2813 788.788 50.9141 750.911 50.9141C713.033 50.9141 677.333 65.2813 650.775 92.2743C624.218 119.267 609.415 154.532 609.415 192.409C609.415 230.287 623.782 265.987 650.775 292.545C677.768 319.102 713.033 333.905 750.911 333.905C788.788 333.905 824.923 319.973 851.046 292.545C862.365 280.79 871.508 267.729 878.474 253.797L923.753 270.341C923.337 271.263 922.914 272.182 922.485 273.096C892.288 337.356 826.89 381.795 750.911 381.795C646.422 381.795 561.524 296.898 561.524 192.409C561.524 87.9206 646.422 3.0234 750.911 3.0234C830.819 3.0234 899.282 52.6244 927.014 122.543C927.385 123.478 927.749 124.417 928.105 125.359C928.105 125.36 928.106 125.361 928.106 125.362L883.263 141.907ZM1113.45 2.17687H1166.38V382.642H1112.44V146.429L1012.98 382.642H960.062V2.17687H1014V240.445L1113.45 2.17687ZM1010.98 255.538V5.20028H963.085V379.619H1010.98L1115.47 131.458V379.619H1163.36V5.20028H1115.47L1010.98 255.538ZM1401.29 2.17687V382.642H1347.35V262.915H1327.19L1280.61 382.642H1224.05L1274.65 252.851C1227.98 233.003 1194.97 186.541 1194.97 132.764C1194.97 61.0332 1252.89 2.17687 1324.26 2.17687H1401.29ZM1278.54 251.184C1278.54 251.184 1278.54 251.184 1278.54 251.184L1228.47 379.619H1278.54L1325.13 259.892H1350.38V379.619H1398.27V5.20028H1324.26C1254.6 5.20028 1198 62.6691 1198 132.764C1198 186.314 1231.52 232.462 1278.54 251.184ZM1324.26 56.1144C1282.88 56.1144 1248.91 90.8421 1248.91 132.764C1248.91 174.239 1282.87 208.978 1324.26 208.978H1347.35V56.1144H1324.26ZM1324.26 53.091C1281.15 53.091 1245.89 89.2267 1245.89 132.764C1245.89 175.865 1281.15 212.001 1324.26 212.001H1350.38V53.091H1324.26Z" fill="url(#paint0_linear)"/>
<path opacity="0.1" d="M17.8808 683.975L16.0937 684.734L16.0976 684.743L17.8808 683.975ZM17.8808 589.521L16.0976 588.754L16.0937 588.763L17.8808 589.521ZM82.7157 524.823L83.4739 526.61L83.483 526.606L82.7157 524.823ZM199.419 536.971L198.3 538.557L198.304 538.56L199.419 536.971ZM243.779 593.752L244.452 595.573L246.288 594.895L245.595 593.065L243.779 593.752ZM214.979 604.399L213.18 605.129L213.888 606.872L215.652 606.22L214.979 604.399ZM164.749 552.804L164.008 554.598L164.02 554.603L164.749 552.804ZM95.0003 552.804L95.7238 554.605L95.7364 554.6L95.0003 552.804ZM65.6539 572.459L67.0339 573.825L67.0411 573.817L65.6539 572.459ZM45.9987 602.079L47.7928 602.82L47.7949 602.815L45.9987 602.079ZM45.8622 671.691L44.0608 672.414L44.0659 672.427L45.8622 671.691ZM65.6539 701.037L67.0121 699.65L67.0119 699.65L65.6539 701.037ZM95.2732 720.829L94.5192 722.618L94.5319 722.623L95.2732 720.829ZM165.022 720.829L164.291 719.031L164.286 719.033L165.022 720.829ZM194.232 701.037L192.834 699.69L192.83 699.694L194.232 701.037ZM211.84 676.195L212.507 674.372L210.879 673.776L210.103 675.327L211.84 676.195ZM240.913 686.842L242.683 687.64L243.541 685.737L241.581 685.019L240.913 686.842ZM196.416 738.71L197.482 740.332L197.484 740.331L196.416 738.71ZM82.7157 748.81L81.9484 750.594L81.9576 750.597L82.7157 748.81ZM43.8148 722.876L42.4364 724.243L42.4421 724.249L42.4479 724.255L43.8148 722.876ZM19.6679 683.217C13.4009 668.445 10.2674 652.961 10.2674 636.748H6.38492C6.38492 653.476 9.6212 669.477 16.0937 684.734L19.6679 683.217ZM10.2674 636.748C10.2674 620.536 13.4009 605.051 19.6679 590.279L16.0937 588.763C9.6212 604.02 6.38492 620.02 6.38492 636.748H10.2674ZM19.664 590.288C26.0341 575.485 34.5443 562.772 45.1874 552.129L42.4421 549.384C31.4281 560.398 22.649 573.529 16.0976 588.754L19.664 590.288ZM45.1874 552.129C55.9209 541.396 68.676 532.888 83.4739 526.61L81.9576 523.036C66.7267 529.497 53.5478 538.278 42.4421 549.384L45.1874 552.129ZM83.483 526.606C98.2532 520.25 113.734 517.073 129.943 517.073V513.19C113.211 513.19 97.2071 516.474 81.9484 523.039L83.483 526.606ZM129.943 517.073C155.21 517.073 177.977 524.232 198.3 538.557L200.537 535.384C179.548 520.59 155.998 513.19 129.943 513.19V517.073ZM198.304 538.56C218.738 552.9 233.278 571.516 241.964 594.44L245.595 593.065C236.628 569.399 221.593 550.16 200.534 535.382L198.304 538.56ZM243.106 591.932L214.306 602.578L215.652 606.22L244.452 595.573L243.106 591.932ZM216.778 603.669C211.594 590.894 204.541 580.023 195.605 571.087L192.859 573.832C201.394 582.367 208.173 592.789 213.18 605.129L216.778 603.669ZM195.605 571.087C186.781 562.263 176.736 555.564 165.478 551.005L164.02 554.603C174.783 558.962 184.393 565.366 192.859 573.832L195.605 571.087ZM165.49 551.01C154.239 546.361 142.385 544.038 129.943 544.038V547.921C141.888 547.921 153.238 550.148 164.008 554.598L165.49 551.01ZM129.943 544.038C117.501 544.038 105.603 546.361 94.2641 551.008L95.7364 554.6C106.6 550.148 117.998 547.921 129.943 547.921V544.038ZM94.2767 551.003C82.9228 555.563 72.9153 562.267 64.2667 571.101L67.0411 573.817C75.3178 565.363 84.8746 558.963 95.7238 554.605L94.2767 551.003ZM64.274 571.094C55.5442 579.917 48.8499 590.003 44.2024 601.342L47.7949 602.815C52.2471 591.951 58.6563 582.291 67.0338 573.825L64.274 571.094ZM44.2046 601.337C39.556 612.587 37.2327 624.395 37.2327 636.748H41.1152C41.1152 624.896 43.3417 613.592 47.7928 602.82L44.2046 601.337ZM37.2327 636.748C37.2327 649.185 39.5078 661.078 44.0608 672.414L47.6636 670.967C43.2989 660.1 41.1152 648.699 41.1152 636.748H37.2327ZM44.0659 672.427C48.7169 683.775 55.464 693.778 64.2959 702.424L67.0119 699.65C58.5545 691.371 52.1072 681.81 47.6584 670.955L44.0659 672.427ZM64.2958 702.424C73.2016 711.145 83.2786 717.88 94.5193 722.618L96.0272 719.04C85.2468 714.496 75.5775 708.037 67.0121 699.65L64.2958 702.424ZM94.5319 722.623C105.781 727.272 117.59 729.595 129.943 729.595V725.712C118.091 725.712 106.786 723.486 96.0146 719.035L94.5319 722.623ZM129.943 729.595C142.474 729.595 154.417 727.273 165.758 722.625L164.286 719.033C153.424 723.484 141.981 725.712 129.943 725.712V729.595ZM165.753 722.627C177.196 717.976 187.162 711.224 195.634 702.38L192.83 699.694C184.74 708.14 175.233 714.583 164.291 719.031L165.753 722.627ZM195.63 702.384C202.952 694.783 208.937 686.342 213.576 677.063L210.103 675.327C205.643 684.248 199.889 692.368 192.834 699.69L195.63 702.384ZM211.172 678.018L240.245 688.665L241.581 685.019L212.507 674.372L211.172 678.018ZM239.143 686.044C229.652 707.085 215.067 724.092 195.347 737.089L197.484 740.331C217.803 726.939 232.882 709.367 242.683 687.64L239.143 686.044ZM195.349 737.088C175.745 749.978 153.96 756.424 129.943 756.424V760.306C154.7 760.306 177.23 753.648 197.482 740.332L195.349 737.088ZM129.943 756.424C113.73 756.424 98.2461 753.29 83.4739 747.023L81.9576 750.597C97.2142 757.07 113.215 760.306 129.943 760.306V756.424ZM83.483 747.027C68.6779 740.656 55.9179 732.145 45.1817 721.498L42.4479 724.255C53.5508 735.265 66.7248 744.043 81.9484 750.593L83.483 747.027ZM45.1932 721.509C34.5465 710.773 26.0347 698.013 19.664 683.208L16.0976 684.743C22.6484 699.966 31.4259 713.14 42.4364 724.243L45.1932 721.509ZM260.568 547.344H258.627V549.286H260.568V547.344ZM260.568 516.633V514.692H258.627V516.633H260.568ZM389.283 516.633H391.224V514.692H389.283V516.633ZM389.283 547.344V549.286H391.224V547.344H389.283ZM340.281 547.344V545.403H338.34V547.344H340.281ZM340.281 757V758.941H342.222V757H340.281ZM309.57 757H307.629V758.941H309.57V757ZM309.57 547.344H311.511V545.403H309.57V547.344ZM262.509 547.344V516.633H258.627V547.344H262.509ZM260.568 518.574H389.283V514.692H260.568V518.574ZM387.341 516.633V547.344H391.224V516.633H387.341ZM389.283 545.403H340.281V549.286H389.283V545.403ZM338.34 547.344V757H342.222V547.344H338.34ZM340.281 755.059H309.57V758.941H340.281V755.059ZM311.511 757V547.344H307.629V757H311.511ZM309.57 545.403H260.568V549.286H309.57V545.403ZM411.395 757H409.454V758.941H411.395V757ZM411.395 516.633V514.692H409.454V516.633H411.395ZM459.031 516.633L459.047 514.692L459.039 514.692H459.031V516.633ZM490.562 523.321L489.785 525.1L489.792 525.103L489.799 525.106L490.562 523.321ZM516.359 540.793L514.969 542.148L514.978 542.157L516.359 540.793ZM529.053 639.205L527.374 638.232L527.368 638.241L529.053 639.205ZM499.57 669.097L500.555 670.771L500.558 670.769L499.57 669.097ZM459.031 680.154V682.095L459.043 682.095L459.031 680.154ZM442.243 680.154V678.212H440.301V680.154H442.243ZM442.243 757V758.941H444.184V757H442.243ZM442.243 649.442H440.301V651.383H442.243V649.442ZM459.031 649.442V651.383H459.044L459.057 651.383L459.031 649.442ZM494.52 634.291L495.899 635.658L495.905 635.651L494.52 634.291ZM459.031 547.344L459.044 545.403H459.031V547.344ZM442.243 547.344V545.403H440.301V547.344H442.243ZM413.336 757V516.633H409.454V757H413.336ZM411.395 518.574H459.031V514.692H411.395V518.574ZM459.015 518.574C469.766 518.663 480.018 520.838 489.785 525.1L491.338 521.542C481.087 517.069 470.318 514.785 459.047 514.692L459.015 518.574ZM489.799 525.106C499.587 529.288 507.969 534.971 514.969 542.148L517.749 539.437C510.371 531.873 501.556 525.908 491.324 521.536L489.799 525.106ZM514.978 542.157C521.985 549.252 527.585 557.689 531.772 567.489L535.343 565.964C530.976 555.745 525.111 546.892 517.74 539.429L514.978 542.157ZM531.772 567.489C535.945 577.255 538.031 587.505 538.031 598.257H541.914C541.914 586.987 539.724 576.217 535.343 565.964L531.772 567.489ZM538.031 598.257C538.031 612.662 534.479 625.975 527.374 638.232L530.733 640.179C538.187 627.321 541.914 613.335 541.914 598.257H538.031ZM527.368 638.241C520.347 650.506 510.76 660.227 498.582 667.426L500.558 670.769C513.314 663.227 523.382 653.019 530.738 640.17L527.368 638.241ZM498.586 667.424C486.512 674.527 473.335 678.123 459.019 678.212L459.043 682.095C474.029 682.002 487.878 678.227 500.555 670.771L498.586 667.424ZM459.031 678.212H442.243V682.095H459.031V678.212ZM440.301 680.154V757H444.184V680.154H440.301ZM442.243 755.059H411.395V758.941H442.243V755.059ZM442.243 651.383H459.031V647.501H442.243V651.383ZM459.057 651.383C473.403 651.195 485.717 645.934 495.899 635.658L493.141 632.925C483.668 642.486 472.323 647.326 459.006 647.501L459.057 651.383ZM495.905 635.651C506.089 625.279 511.203 612.779 511.203 598.257H507.32C507.32 611.761 502.606 623.284 493.135 632.931L495.905 635.651ZM511.203 598.257C511.203 583.909 506.084 571.502 495.905 561.135L493.135 563.855C502.612 573.508 507.32 584.942 507.32 598.257H511.203ZM495.905 561.135C485.721 550.763 473.4 545.497 459.044 545.403L459.019 549.285C472.325 549.373 483.663 554.208 493.135 563.855L495.905 561.135ZM459.031 545.403H442.243V549.286H459.031V545.403ZM440.301 547.344V649.442H444.184V547.344H440.301ZM533.967 757L532.079 756.55L531.508 758.941H533.967V757ZM591.295 516.633V514.692H589.762L589.406 516.183L591.295 516.633ZM638.795 516.633L640.681 516.172L640.319 514.692H638.795V516.633ZM697.488 757V758.941H699.96L699.373 756.54L697.488 757ZM665.411 757L663.523 757.452L663.88 758.941H665.411V757ZM644.664 670.326L646.552 669.874L646.196 668.385H644.664V670.326ZM586.244 670.326V668.385H584.701L584.353 669.888L586.244 670.326ZM566.18 757V758.941H567.723L568.071 757.438L566.18 757ZM593.479 639.615L591.587 639.178L591.038 641.556H593.479V639.615ZM637.43 639.615V641.556H639.891L639.318 639.162L637.43 639.615ZM615.318 547.344L617.206 546.892L616.849 545.403H615.318V547.344ZM614.772 547.344V545.403H613.227L612.88 546.908L614.772 547.344ZM535.855 757.45L593.183 517.083L589.406 516.183L532.079 756.55L535.855 757.45ZM591.295 518.574H638.795V514.692H591.295V518.574ZM636.909 517.093L695.602 757.46L699.373 756.54L640.681 516.172L636.909 517.093ZM697.488 755.059H665.411V758.941H697.488V755.059ZM667.299 756.548L646.552 669.874L642.776 670.778L663.523 757.452L667.299 756.548ZM644.664 668.385H586.244V672.267H644.664V668.385ZM584.353 669.888L564.288 756.562L568.071 757.438L588.136 670.764L584.353 669.888ZM566.18 755.059H533.967V758.941H566.18V755.059ZM593.479 641.556H637.43V637.673H593.479V641.556ZM639.318 639.162L617.206 546.892L613.43 547.797L635.542 640.067L639.318 639.162ZM615.318 545.403H614.772V549.286H615.318V545.403ZM612.88 546.908L591.587 639.178L595.37 640.051L616.663 547.781L612.88 546.908ZM689.98 547.344H688.039V549.286H689.98V547.344ZM689.98 516.633V514.692H688.039V516.633H689.98ZM818.695 516.633H820.636V514.692H818.695V516.633ZM818.695 547.344V549.286H820.636V547.344H818.695ZM769.693 547.344V545.403H767.752V547.344H769.693ZM769.693 757V758.941H771.634V757H769.693ZM738.982 757H737.041V758.941H738.982V757ZM738.982 547.344H740.923V545.403H738.982V547.344ZM691.922 547.344V516.633H688.039V547.344H691.922ZM689.98 518.574H818.695V514.692H689.98V518.574ZM816.754 516.633V547.344H820.636V516.633H816.754ZM818.695 545.403H769.693V549.286H818.695V545.403ZM767.752 547.344V757H771.634V547.344H767.752ZM769.693 755.059H738.982V758.941H769.693V755.059ZM740.923 757V547.344H737.041V757H740.923ZM738.982 545.403H689.98V549.286H738.982V545.403ZM840.807 757H838.866V758.941H840.807V757ZM840.807 516.633V514.692H838.866V516.633H840.807ZM969.385 516.633H971.326V514.692H969.385V516.633ZM969.385 547.344V549.286H971.326V547.344H969.385ZM871.655 547.344V545.403H869.713V547.344H871.655ZM871.655 614.5H869.713V616.441H871.655V614.5ZM952.732 614.5H954.674V612.558H952.732V614.5ZM952.732 645.211V647.152H954.674V645.211H952.732ZM871.655 645.211V643.27H869.713V645.211H871.655ZM871.655 726.289H869.713V728.23H871.655V726.289ZM969.385 726.289H971.326V724.347H969.385V726.289ZM969.385 757V758.941H971.326V757H969.385ZM842.748 757V516.633H838.866V757H842.748ZM840.807 518.574H969.385V514.692H840.807V518.574ZM967.444 516.633V547.344H971.326V516.633H967.444ZM969.385 545.403H871.655V549.286H969.385V545.403ZM869.713 547.344V614.5H873.596V547.344H869.713ZM871.655 616.441H952.732V612.558H871.655V616.441ZM950.791 614.5V645.211H954.674V614.5H950.791ZM952.732 643.27H871.655V647.152H952.732V643.27ZM869.713 645.211V726.289H873.596V645.211H869.713ZM871.655 728.23H969.385V724.347H871.655V728.23ZM967.444 726.289V757H971.326V726.289H967.444ZM969.385 755.059H840.807V758.941H969.385V755.059ZM994.5 757H992.559V758.941H994.5V757ZM994.5 516.633V514.692H992.559V516.633H994.5ZM1102.19 516.633H1104.14V514.692H1102.19V516.633ZM1102.19 547.344V549.286H1104.14V547.344H1102.19ZM1025.35 547.344V545.403H1023.41V547.344H1025.35ZM1025.35 757V758.941H1027.29V757H1025.35ZM996.441 757V516.633H992.559V757H996.441ZM994.5 518.574H1102.19V514.692H994.5V518.574ZM1100.25 516.633V547.344H1104.14V516.633H1100.25ZM1102.19 545.403H1025.35V549.286H1102.19V545.403ZM1023.41 547.344V757H1027.29V547.344H1023.41ZM1025.35 755.059H994.5V758.941H1025.35V755.059ZM1125.81 757H1123.87V758.941H1125.81V757ZM1125.81 516.633V514.692H1123.87V516.633H1125.81ZM1156.66 516.633H1158.6V514.692H1156.66V516.633ZM1156.66 677.287H1154.71L1158.45 678.035L1156.66 677.287ZM1223.67 516.633V514.692H1222.38L1221.88 515.886L1223.67 516.633ZM1254.39 516.633H1256.33V514.692H1254.39V516.633ZM1254.39 757V758.941H1256.33V757H1254.39ZM1223.67 757H1221.73V758.941H1223.67V757ZM1223.67 597.711H1225.62L1221.89 596.958L1223.67 597.711ZM1156.66 757V758.941H1157.94L1158.44 757.753L1156.66 757ZM1127.75 757V516.633H1123.87V757H1127.75ZM1125.81 518.574H1156.66V514.692H1125.81V518.574ZM1154.71 516.633V677.287H1158.6V516.633H1154.71ZM1158.45 678.035L1225.47 517.38L1221.88 515.886L1154.86 676.54L1158.45 678.035ZM1223.67 518.574H1254.39V514.692H1223.67V518.574ZM1252.44 516.633V757H1256.33V516.633H1252.44ZM1254.39 755.059H1223.67V758.941H1254.39V755.059ZM1225.62 757V597.711H1221.73V757H1225.62ZM1221.89 596.958L1154.87 756.247L1158.44 757.753L1225.46 598.464L1221.89 596.958ZM1156.66 755.059H1125.81V758.941H1156.66V755.059ZM1287.42 557.581L1285.73 556.613L1285.73 556.617L1287.42 557.581ZM1317.04 527.689L1318.02 529.365L1318.02 529.36L1317.04 527.689ZM1405.35 516.633H1407.29V514.692H1405.35V516.633ZM1405.35 757V758.941H1407.29V757H1405.35ZM1374.5 757H1372.56V758.941H1374.5V757ZM1374.5 680.154H1376.44V678.212H1374.5V680.154ZM1358.26 680.154V678.212H1356.93L1356.45 679.45L1358.26 680.154ZM1328.37 757V758.941H1329.69L1330.17 757.704L1328.37 757ZM1296.29 757L1294.48 756.296L1293.45 758.941H1296.29V757ZM1328.37 674.557L1330.17 675.261L1330.87 673.467L1329.08 672.754L1328.37 674.557ZM1290.97 644.665L1289.37 645.768L1289.37 645.775L1290.97 644.665ZM1374.5 649.442V651.383H1376.44V649.442H1374.5ZM1374.5 547.344H1376.44V545.403H1374.5V547.344ZM1322.22 562.495L1323.61 563.855L1323.61 563.849L1322.22 562.495ZM1278.58 598.53C1278.58 584.12 1282.08 570.804 1289.1 558.546L1285.73 556.617C1278.37 569.474 1274.69 583.457 1274.69 598.53H1278.58ZM1289.1 558.55C1296.21 546.191 1305.84 536.473 1318.02 529.365L1316.06 526.013C1303.3 533.465 1293.18 543.675 1285.73 556.613L1289.1 558.55ZM1318.02 529.36C1330.19 522.168 1343.4 518.574 1357.71 518.574V514.692C1342.72 514.692 1328.82 518.468 1316.05 526.018L1318.02 529.36ZM1357.71 518.574H1405.35V514.692H1357.71V518.574ZM1403.41 516.633V757H1407.29V516.633H1403.41ZM1405.35 755.059H1374.5V758.941H1405.35V755.059ZM1376.44 757V680.154H1372.56V757H1376.44ZM1374.5 678.212H1358.26V682.095H1374.5V678.212ZM1356.45 679.45L1326.56 756.296L1330.17 757.704L1360.07 680.857L1356.45 679.45ZM1328.37 755.059H1296.29V758.941H1328.37V755.059ZM1298.1 757.704L1330.17 675.261L1326.56 673.853L1294.48 756.296L1298.1 757.704ZM1329.08 672.754C1314.16 666.802 1301.99 657.083 1292.56 643.555L1289.37 645.775C1299.23 659.91 1312 670.119 1327.65 676.36L1329.08 672.754ZM1292.56 643.562C1283.23 630.057 1278.58 615.064 1278.58 598.53H1274.69C1274.69 615.846 1279.59 631.61 1289.37 645.768L1292.56 643.562ZM1305.54 598.53C1305.54 612.965 1310.66 625.418 1320.84 635.788L1323.61 633.068C1314.13 623.418 1309.42 611.939 1309.42 598.53H1305.54ZM1320.84 635.788C1331.02 646.163 1343.35 651.383 1357.71 651.383V647.501C1344.41 647.501 1333.08 642.712 1323.61 633.068L1320.84 635.788ZM1357.71 651.383H1374.5V647.501H1357.71V651.383ZM1376.44 649.442V547.344H1372.56V649.442H1376.44ZM1374.5 545.403H1357.71V549.286H1374.5V545.403ZM1357.71 545.403C1343.35 545.403 1331.02 550.673 1320.83 561.141L1323.61 563.849C1333.08 554.116 1344.42 549.286 1357.71 549.286V545.403ZM1320.84 561.135C1310.65 571.507 1305.54 584.007 1305.54 598.53H1309.42C1309.42 585.026 1314.14 573.502 1323.61 563.855L1320.84 561.135Z" fill="url(#paint1_linear)"/>
<path d="M782 459.632C790.928 469.136 798.128 477.488 805.904 485.264C796.688 501.392 782.864 512.624 767.6 512.624C752.912 512.624 728.144 493.04 727.28 469.136C728.432 449.552 737.36 441.776 761.264 435.728C767.888 443.792 774.8 451.856 782 459.632ZM864.08 526.736C888.272 526.736 920.816 496.784 920.816 473.744C920.816 451.568 907.568 438.896 894.608 428.816C899.216 423.92 901.52 417.008 908.144 411.536C910.448 409.52 909.008 409.52 906.992 409.808C903.536 410.672 891.44 411.536 881.072 411.536H841.328C838.736 411.536 832.4 422.192 827.216 428.24C826.064 429.68 826.352 429.968 828.368 429.68C834.992 428.816 843.632 428.816 859.472 428.816L891.728 429.104C897.2 436.88 900.944 453.584 900.944 472.016C900.944 492.752 897.2 515.504 886.544 515.504C871.856 515.504 842.768 493.904 801.584 448.112C773.072 416.432 746 385.616 746 363.152C746 341.264 759.536 328.304 783.728 328.304C811.952 328.304 825.2 354.224 827.504 386.48C827.504 391.088 830.672 391.088 830.672 386.48C830.672 374.672 831.248 362.288 832.112 352.784C832.4 347.312 832.976 341.84 833.552 336.944C827.792 332.912 798.992 326 784.016 326C753.488 326.864 730.16 347.312 730.16 381.872C730.16 393.68 742.832 412.976 760.112 434.576L759.248 434C735.344 437.168 710 461.936 710 483.248C710 503.984 731.888 527.6 751.76 527.6C773.936 527.6 801.584 499.952 808.208 487.28C834.704 513.776 853.712 526.736 864.08 526.736Z" fill="url(#paint2_linear)"/>
<defs>
<linearGradient id="paint0_linear" x1="713.423" y1="0" x2="713.423" y2="384.819" gradientUnits="userSpaceOnUse">
<stop stop-color="#0372C8"/>
<stop offset="1" stop-color="#FF0000"/>
</linearGradient>
<linearGradient id="paint1_linear" x1="714" y1="427" x2="714" y2="768.661" gradientUnits="userSpaceOnUse">
<stop stop-color="#0372C8"/>
<stop offset="1" stop-color="#FF0000"/>
</linearGradient>
<linearGradient id="paint2_linear" x1="761.253" y1="379.971" x2="825.794" y2="512.11" gradientUnits="userSpaceOnUse">
<stop stop-color="#072B9D"/>
<stop offset="0.739583" stop-color="#7000FF"/>
</linearGradient>
</defs>
</svg>
