<?xml version="1.0" encoding="utf-8"?><svg viewBox="0 0 43 43" xmlns="http://www.w3.org/2000/svg" xmlns:xlink="http://www.w3.org/1999/xlink"><style>:root>svg{display:none}:root>svg:target{display:block}</style><svg fill="none" viewBox="0 0 43 43" id="news-arrow" xmlns="http://www.w3.org/2000/svg"><g opacity=".3" fill="#fff"><mask id="aa"><path fill-rule="evenodd" clip-rule="evenodd" d="M2.752 18.46v5.506h29.013L17.273 38.458l3.954 3.954 17.245-17.245 3.954-3.953-2.753-2.753L21.228.015 17.274 3.97l14.491 14.492H2.752z"/></mask><path d="M2.752 23.966h-1v1h1v-1zm0-5.505v-1h-1v1h1zm29.013 5.505l.707.707 1.707-1.707h-2.414v1zM17.273 38.458l-.707-.708-.707.708.707.707.707-.707zm3.954 3.954l-.707.707.707.707.708-.707-.707-.707zm17.245-17.245l.707-.707-.707-.707-.707.707.707.707zm0 0l-.707.708.707.707.707-.707-.707-.707zm3.954-3.953l.707.707.707-.707-.707-.707-.707.707zm-2.753-2.753l-1-.008-.003.419.296.296.707-.707zm0 0l1 .007.008-1.015-1.015.008.007 1zm0 0l-.707.707.296.296.419-.003-.008-1zM21.228.015l.707-.707-.707-.707-.707.707.707.707zM17.274 3.97l-.707-.707-.707.707.707.708.707-.708zm14.491 14.492v1h2.414l-1.707-1.707-.707.707zM3.752 23.966v-5.505h-2v5.505h2zm28.013-1H2.752v2h29.013v-2zm-.707.293L16.566 37.75l1.415 1.415 14.49-14.492-1.413-1.414zM16.566 39.165l3.954 3.954 1.415-1.414-3.954-3.955-1.415 1.415zm5.369 3.954l17.244-17.244-1.414-1.415L20.52 41.705l1.415 1.414zm15.83-17.244l1.414-1.415-1.414 1.415zm1.414 0l3.954-3.954-1.414-1.415-3.954 3.954 1.414 1.415zm3.954-5.369l-2.753-2.752-1.414 1.414 2.753 2.753 1.414-1.415zm-4.46-2.053l2 .015-2-.015zm1.008 1.008l-.015-2 .015 2zm.7-1.707L21.934-.692 20.521.722l18.445 18.446 1.414-1.414zM20.52-.692l-3.954 3.954 1.414 1.415L21.935.722 20.521-.692zm-3.954 5.369l14.491 14.49 1.414-1.413L17.981 3.262l-1.414 1.415zM2.752 19.46h29.013v-2H2.752v2z" mask="url(#aa)"/></g></svg></svg>