<svg width="36" height="36" fill="none" xmlns="http://www.w3.org/2000/svg"><mask id="a" fill="#fff"><path fill-rule="evenodd" clip-rule="evenodd" d="M2.294 16.028v4.588H26.47L14.395 32.693l3.295 3.295 14.37-14.37 3.295-3.295-2.294-2.294L17.69.656l-3.296 3.295 12.076 12.076H2.294z"/></mask><path d="M2.294 20.616h-1v1h1v-1zm0-4.588v-1h-1v1h1zm24.177 4.588l.707.707 1.707-1.707h-2.414v1zM14.395 32.693l-.707-.707-.708.707.707.707.708-.707zm3.295 3.295l-.707.707.707.707.707-.707-.707-.707zm14.37-14.37l.707-.708-.707-.707-.707.707.707.707zm0 0l-.707.707.707.707.707-.707-.707-.707zm3.295-3.295l.707.707.708-.707-.708-.708-.707.708zm-2.294-2.294l-1-.002v.415l.293.294.707-.707zm0 0h1l.001-1.002-1.002.001.001 1zm0 0l-.707.706.293.294h.415l-.001-1zM17.69.656l.706-.707-.707-.707-.707.707.707.707zm-3.296 3.295l-.707-.707-.707.707.707.707.707-.707zm12.076 12.076v1h2.414l-1.707-1.707-.707.707zM3.294 20.616v-4.588h-2v4.588h2zm23.177-1H2.294v2H26.47v-2zm-.707.293L13.688 31.986l1.414 1.414 12.076-12.077-1.414-1.414zm-12.076 13.49l3.295 3.296 1.414-1.414-3.295-3.295-1.415 1.414zm4.709 3.296l14.37-14.37-1.414-1.415-14.37 14.37 1.414 1.415zm12.956-14.37l1.414-1.415-1.414 1.415zm1.414 0l3.295-3.295-1.414-1.415-3.295 3.295 1.414 1.415zm3.295-4.71l-2.294-2.294-1.414 1.415 2.294 2.294 1.414-1.415zm-4-1.588l2 .003-2-.003zm1 1.001l-.002-2 .002 2zm.706-1.707L18.398-.049l-1.415 1.413 15.37 15.371 1.415-1.414zM16.983-.049l-3.295 3.294 1.414 1.414 3.295-3.295L16.983-.05zm-3.295 4.708l12.076 12.076 1.414-1.414L15.102 3.245 13.688 4.66zM2.294 17.03H26.47v-2H2.294v2z" fill="#17181A" mask="url(#a)"/></svg>