<svg width="33" height="35" fill="none" xmlns="http://www.w3.org/2000/svg"><mask id="a" fill="#fff"><path fill-rule="evenodd" clip-rule="evenodd" d="M.216 15.708v4.432H23.57L11.905 31.805l3.183 3.183L28.97 21.107l3.183-3.183-3.183-3.183L15.09.86l-3.184 3.183L23.57 15.708H.216z"/></mask><path d="M.216 20.14h-1v1h1v-1zm0-4.432v-1h-1v1h1zM23.57 20.14l.707.707 1.707-1.707H23.57v1zM11.905 31.805l-.707-.707-.707.707.707.707.707-.707zm3.183 3.183l-.707.707.707.707.707-.707-.707-.707zM28.97 21.107l.707-.707-.707-.707-.707.707.707.707zm0 0l-.707.707.707.707.707-.707-.707-.707zm3.183-3.183l.707.707.707-.707-.707-.707-.707.707zm0 0l-.707-.707-.707.707.707.707.707-.707zm0 0l.707.707.707-.707-.707-.707-.707.707zM28.97 14.74l.707-.707-.707-.707-.707.707.707.707zm0 0l-.707.707.707.707.707-.707-.707-.707zM15.09.86l.706-.707-.707-.707-.707.707.707.707zm-3.184 3.183l-.707-.707-.707.707.707.707.707-.707zM23.57 15.708v1h2.415l-1.707-1.707-.707.707zM1.216 20.14v-4.432h-2v4.432h2zm22.355-1H.216v2H23.57v-2zm-.708.293L11.198 31.098l1.414 1.414 11.666-11.665-1.415-1.414zm-11.665 13.08l3.183 3.182 1.414-1.414-3.183-3.183-1.414 1.414zm4.597 3.182l13.882-13.881-1.415-1.414-13.88 13.88 1.413 1.415zm12.467-13.881l1.415-1.414-1.415 1.414zm1.415 0l3.182-3.183-1.414-1.414-3.183 3.183 1.415 1.414zm3.182-4.597l-1.414 1.414 1.414-1.414zm0 1.414l-1.414-1.414 1.414 1.414zm0-1.414l-3.183-3.183-1.414 1.414 3.183 3.183 1.414-1.414zm-4.597-3.183l1.415 1.414-1.415-1.414zm1.415 0L15.795.153l-1.414 1.414 13.881 13.881 1.415-1.414zM14.38.153l-3.183 3.183 1.414 1.414 3.183-3.183L14.381.153zM11.198 4.75l11.665 11.665 1.415-1.414L12.612 3.336 11.198 4.75zM.216 16.708H23.57v-2H.216v2z" fill="#fff" mask="url(#a)"/></svg>