<svg width="43" height="43" viewBox="0 0 43 43" fill="none" xmlns="http://www.w3.org/2000/svg">
<g opacity="0.3">
<mask id="path-1-inside-1" fill="white">
<path fill-rule="evenodd" clip-rule="evenodd" d="M2.75233 18.4607L2.75233 23.9662L31.7648 23.9662L17.2734 38.4576L21.2275 42.4116L38.4717 25.1674L38.472 25.1677L42.4261 21.2136L39.6732 18.4608L39.6732 18.4607L39.6732 18.4607L21.2279 0.0153883L17.2738 3.96946L31.7651 18.4607L2.75233 18.4607Z"/>
</mask>
<path d="M2.75233 23.9662L1.75233 23.9662L1.75233 24.9662L2.75233 24.9662L2.75233 23.9662ZM2.75233 18.4607L2.75233 17.4607L1.75233 17.4607L1.75233 18.4607L2.75233 18.4607ZM31.7648 23.9662L32.4719 24.6733L34.179 22.9662L31.7648 22.9662L31.7648 23.9662ZM17.2734 38.4576L16.5663 37.7504L15.8592 38.4576L16.5663 39.1647L17.2734 38.4576ZM21.2275 42.4116L20.5204 43.1187L21.2275 43.8258L21.9346 43.1187L21.2275 42.4116ZM38.4717 25.1674L39.1788 24.4603L38.4717 23.7532L37.7646 24.4603L38.4717 25.1674ZM38.472 25.1677L37.7649 25.8748L38.472 26.5819L39.1791 25.8748L38.472 25.1677ZM42.4261 21.2136L43.1332 21.9207L43.8403 21.2136L43.1332 20.5065L42.4261 21.2136ZM39.6732 18.4608L38.6733 18.4534L38.6702 18.8719L38.9661 19.1679L39.6732 18.4608ZM39.6732 18.4607L40.6732 18.4681L40.6807 17.4532L39.6658 17.4608L39.6732 18.4607ZM39.6732 18.4607L38.9661 19.1678L39.2621 19.4638L39.6806 19.4607L39.6732 18.4607ZM21.2279 0.0153883L21.935 -0.691719L21.2279 -1.39883L20.5208 -0.691718L21.2279 0.0153883ZM17.2738 3.96946L16.5667 3.26235L15.8596 3.96946L16.5667 4.67656L17.2738 3.96946ZM31.7651 18.4607L31.7651 19.4607L34.1793 19.4607L32.4722 17.7536L31.7651 18.4607ZM3.75233 23.9662L3.75233 18.4607L1.75233 18.4607L1.75233 23.9662L3.75233 23.9662ZM31.7648 22.9662L2.75233 22.9662L2.75233 24.9662L31.7648 24.9662L31.7648 22.9662ZM31.0577 23.2591L16.5663 37.7504L17.9805 39.1647L32.4719 24.6733L31.0577 23.2591ZM16.5663 39.1647L20.5204 43.1187L21.9346 41.7045L17.9805 37.7504L16.5663 39.1647ZM21.9346 43.1187L39.1788 25.8745L37.7646 24.4603L20.5204 41.7045L21.9346 43.1187ZM37.7646 25.8745L37.7649 25.8748L39.1791 24.4605L39.1788 24.4603L37.7646 25.8745ZM39.1791 25.8748L43.1332 21.9207L41.719 20.5065L37.7649 24.4605L39.1791 25.8748ZM43.1332 20.5065L40.3804 17.7537L38.9661 19.1679L41.719 21.9207L43.1332 20.5065ZM38.6733 18.4533L38.6733 18.4534L40.6732 18.4682L40.6732 18.4681L38.6733 18.4533ZM39.6806 19.4607L39.6807 19.4607L39.6658 17.4608L39.6658 17.4608L39.6806 19.4607ZM40.3803 17.7536L21.935 -0.691719L20.5208 0.722495L38.9661 19.1678L40.3803 17.7536ZM20.5208 -0.691718L16.5667 3.26235L17.9809 4.67656L21.935 0.722495L20.5208 -0.691718ZM16.5667 4.67656L31.058 19.1678L32.4722 17.7536L17.9809 3.26235L16.5667 4.67656ZM2.75233 19.4607L31.7651 19.4607L31.7651 17.4607L2.75233 17.4607L2.75233 19.4607Z" fill="white" mask="url(#path-1-inside-1)"/>
</g>
</svg>
